<svg width="1920" height="1842" viewBox="0 0 1920 1842" fill="none" xmlns="http://www.w3.org/2000/svg">
<rect y="921" width="1920" height="921" fill="white"/>
<rect width="1920" height="921" fill="white"/>
<path d="M1085 0V170C1085 170 1084.86 192.076 1080 205C1074.42 219.849 1056.71 238.285 1056.71 238.285L968.285 326.715C968.285 326.715 949.849 344.417 935 350C922.076 354.859 900 355 900 355H437C437 355 414.924 354.859 402 350C387.16 344.42 368.732 326.732 368.732 326.732L225.285 183.285C225.285 183.285 206.849 165.583 192 160C179.076 155.141 157 155 157 155H0" stroke="#E72419" stroke-width="25"/>
<path d="M468 0V489C468 489 468.141 511.076 473 524C478.584 538.852 496.29 557.29 496.29 557.29L639.718 700.718C639.718 700.718 657.418 719.153 663 734C667.859 746.924 668 769 668 769V1017C668 1017 668.141 1039.08 673 1052C678.583 1066.85 696.287 1085.29 696.287 1085.29L1239.72 1628.72C1239.72 1628.72 1258.15 1646.42 1273 1652C1285.92 1656.86 1308 1657 1308 1657H1920" stroke="#F499BB" stroke-width="25"/>
<path d="M0 1356H104C104 1356 126.076 1355.86 139 1351C153.849 1345.42 172.286 1327.71 172.286 1327.71L245.715 1254.29C245.715 1254.29 263.417 1235.85 269 1221C273.859 1208.08 274 1186 274 1186V1082C274 1082 274.141 1059.92 279 1047C284.58 1032.16 302.27 1013.73 302.27 1013.73L445.72 870.28C445.72 870.28 464.154 852.582 479 847C491.924 842.141 514 842 514 842H1123C1123 842 1145.08 841.859 1158 837C1172.85 831.418 1191.28 813.717 1191.28 813.717L1284.72 720.283C1284.72 720.283 1302.42 701.848 1308 687C1312.86 674.076 1313 652 1313 652V384C1313 384 1313.14 361.924 1318 349C1323.58 334.158 1341.27 315.729 1341.27 315.729L1524.72 132.281C1524.72 132.281 1543.15 114.582 1558 109C1570.92 104.141 1593 104 1593 104H1920" stroke="#C9CB2D" stroke-width="25"/>
<path d="M326 1842V1671C326 1671 326.141 1648.92 331 1636C336.58 1621.16 354.268 1602.73 354.268 1602.73L547.716 1409.28C547.716 1409.28 566.152 1391.58 581 1386C593.924 1381.14 616 1381 616 1381H1144C1144 1381 1166.08 1380.86 1179 1376C1193.85 1370.42 1212.29 1352.71 1212.29 1352.71L1305.7 1259.3C1305.7 1259.3 1323.41 1240.86 1329 1226C1333.86 1213.08 1334 1191 1334 1191V1062C1334 1062 1334.14 1039.92 1339 1027C1344.59 1012.14 1362.31 993.692 1362.31 993.692L1485.71 870.288C1485.71 870.288 1504.15 852.583 1519 847C1531.92 842.141 1554 842 1554 842H1920" stroke="#0A7ECA" stroke-width="25"/>
<path d="M1553 0V658C1553 658 1553.14 680.076 1558 693C1563.58 707.851 1581.29 726.289 1581.29 726.289L1874.72 1019.72C1874.72 1019.72 1893.16 1037.42 1908 1043C1911.53 1044.33 1915 1046.02 1920 1046.02" stroke="#009847" stroke-width="25"/>
<path d="M1481 1842V1481C1481 1481 1481.14 1458.92 1486 1446C1491.58 1431.15 1509.29 1412.71 1509.29 1412.71L1632.71 1289.29C1632.71 1289.29 1651.15 1271.58 1666 1266C1678.92 1261.14 1701 1261 1701 1261H1920" stroke="#FF7E40" stroke-width="25"/>
<circle cx="468" cy="355" r="20" fill="black"/>
<circle cx="468" cy="355" r="15" fill="white"/>
<circle cx="668" cy="842" r="20" fill="black"/>
<circle cx="668" cy="842" r="15" fill="white"/>
<circle cx="1553" cy="112" r="20" fill="black"/>
<circle cx="1553" cy="112" r="15" fill="white"/>
<circle cx="1697" cy="842" r="20" fill="black"/>
<circle cx="1697" cy="842" r="15" fill="white"/>
<circle cx="993" cy="1382" r="20" fill="black"/>
<circle cx="993" cy="1382" r="15" fill="white"/>
<circle cx="1481" cy="1657" r="20" fill="black"/>
<circle cx="1481" cy="1657" r="15" fill="white"/>
</svg>
